<svg width="36" height="36" fill="none" xmlns="http://www.w3.org/2000/svg"><g clip-path="url(#a)"><path d="M18.004 8.77A9.214 9.214 0 008.776 18c0 5.109 4.12 9.23 9.228 9.23A9.214 9.214 0 0027.232 18c0-5.109-4.12-9.23-9.228-9.23zm0 15.23c-3.3 0-6-2.69-6-6s2.691-6 6-6 6 2.69 6 6-2.7 6-6 6zM29.762 8.394a2.148 2.148 0 01-2.153 2.152 2.153 2.153 0 112.152-2.153zm6.111 2.184c-.136-2.883-.795-5.438-2.907-7.543C30.862.93 28.308.271 25.425.127c-2.972-.17-11.878-.17-14.85 0-2.875.136-5.429.795-7.541 2.9C.922 5.13.27 7.685.126 10.568c-.168 2.973-.168 11.881 0 14.853.137 2.884.796 5.439 2.908 7.544 2.112 2.104 4.658 2.763 7.541 2.907 2.972.17 11.878.17 14.85 0 2.883-.136 5.437-.795 7.541-2.907 2.104-2.105 2.763-4.66 2.907-7.544.17-2.972.17-11.872 0-14.845zm-3.838 18.035a6.074 6.074 0 01-3.422 3.422c-2.369.94-7.99.723-10.609.723-2.618 0-8.248.209-10.61-.723a6.075 6.075 0 01-3.42-3.422c-.94-2.37-.723-7.993-.723-10.612 0-2.619-.21-8.25.722-10.612a6.075 6.075 0 013.422-3.422c2.369-.94 7.99-.723 10.609-.723 2.618 0 8.248-.209 10.61.723a6.075 6.075 0 013.42 3.422c.94 2.37.723 7.993.723 10.612 0 2.619.217 8.25-.722 10.611z" fill="#fff"/></g><defs><clipPath id="a"><path fill="#fff" d="M0 0H36V36H0z"/></clipPath></defs></svg>