<svg width="36" height="26" fill="none" xmlns="http://www.w3.org/2000/svg"><g clip-path="url(#a)"><path d="M35.248 4.068c-.414-1.601-1.634-2.862-3.183-3.29C29.258 0 18 0 18 0S6.743 0 3.935.778c-1.549.428-2.769 1.689-3.183 3.29C0 6.971 0 13.026 0 13.026s0 6.056.752 8.959a4.517 4.517 0 003.183 3.237C6.743 26 18 26 18 26s11.258 0 14.065-.778a4.517 4.517 0 003.183-3.238C36 19.082 36 13.027 36 13.027s0-6.055-.752-8.958zm-20.93 14.456V7.528l9.41 5.498-9.41 5.498z" fill="#fff"/></g><defs><clipPath id="a"><path fill="#fff" d="M0 0H36V26H0z"/></clipPath></defs></svg>