<svg width="42" height="18" fill="none" xmlns="http://www.w3.org/2000/svg"><path d="M2.736 9.824v4.752h7.8V17H.288V.224h10.224v2.424H2.736v4.728h7.608v2.448H2.736zM14.035 17H11.61V.176L13.483.2l8.184 11.832V.2h2.4V17h-1.92L14.035 5.264V17zm27.62-10.776h-2.591c-.672-2.712-3.264-3.696-5.4-3.696-3.288 0-5.832 2.568-5.832 6.096 0 3.552 2.544 6.168 5.832 6.168 2.064 0 4.272-.96 5.28-3.408h-6.216V8.96h9.048c-.12 1.416-.24 2.352-.456 2.904v-.024c-1.152 3.216-4.608 5.28-7.656 5.28-4.704 0-8.256-3.552-8.256-8.496 0-4.968 3.624-8.52 8.256-8.52 3.216 0 7.104 1.656 7.992 6.12z" fill="#fff"/></svg>